#!OML:ASF X:\für Bonn\!DataBase\2005_08_11_Bastian_Final\c3d\Bastian.ASF
:FULLY-SPECIFIED
:DEGREES
112
root -2.0588 15.9424 -27.8989 122.335 -9.1716 -185.367
lowerback 33.054 9.59332 6.11736
upperback 25.0267 4.88727 -2.81115
thorax 11.9597 -0.545953 -8.09961
lowerneck 8.51689 0.707773 -14.8549
upperneck 7.50119 -1.48944 15.6595
head 0.942 -1.32709 7.32794
rclavicle -9.97899e-014 -3.49861e-014
rhumerus -33.1602 26.2655 -86.0259
rradius 118.213
rwrist 17.7313
rhand -16.2995 6.37667
rfingers 7.12502
rthumb 9.91117 -23.37
lclavicle -9.97899e-014 -3.49861e-014
lhumerus 8.43405 -38.895 81.688
lradius 109.289
lwrist 45.2991
lhand -9.28878 -7.58387
lfingers 7.12502
lthumb 16.6684 21.7204
rfemur 33.0224 1.5015 21.6615
rtibia 46.5918
rfoot -193.441 -173.004
rtoes 6.7743
lfemur -65.5409 13.8627 -18.9054
ltibia 102.031
lfoot -5.59982 -2.82285
ltoes -25.0467
113
root -2.04745 15.9894 -27.8517 123.402 -8.82973 -185.132
lowerback 32.084 9.16409 5.904
upperback 24.5482 4.61464 -2.94107
thorax 11.6729 -0.554426 -8.00694
lowerneck 8.06368 0.679106 -14.6444
upperneck 7.6673 -1.42507 15.094
head 1.05851 -1.26706 7.10116
rclavicle -4.37326e-015 9.70069e-014
rhumerus -35.8847 26.2242 -87.3607
rradius 118.118
rwrist 17.2981
rhand -16.4046 6.54422
rfingers 7.12502
rthumb 9.80982 -23.2073
lclavicle -4.37326e-015 9.70069e-014
lhumerus 7.53467 -38.6808 82.1349
lradius 109.353
lwrist 44.9157
lhand -8.93634 -7.63869
lfingers 7.12502
lthumb 17.0077 21.6367
rfemur 31.838 1.48448 22.0736
rtibia 46.3228
rfoot -193.146 -173.046
rtoes 6.14245
lfemur -63.6738 14.3303 -18.4558
ltibia 104.17
lfoot -5.8649 -4.49199
ltoes -23.8481
114
root -2.03597 16.038 -27.8015 124.494 -8.51794 -184.915
lowerback 31.1268 8.72567 5.68856
upperback 24.0331 4.34208 -3.08153
thorax 11.3506 -0.559344 -7.92407
lowerneck 7.57606 0.645723 -14.3632
upperneck 7.88026 -1.36383 14.5031
head 1.19448 -1.20882 6.85584
rclavicle 1.47101e-014 -6.99722e-014
rhumerus -38.5922 26.107 -88.7675
rradius 118.019
rwrist 16.3512
rhand -16.5337 6.70259
rfingers 7.12502
rthumb 9.68522 -23.0547
lclavicle 1.47101e-014 -6.99722e-014
lhumerus 6.6765 -38.4834 82.5416
lradius 109.354
lwrist 44.4538
lhand -8.5785 -7.81867
lfingers 7.12502
lthumb 17.3521 21.4268
rfemur 30.6406 1.48411 22.4272
rtibia 46.0256
rfoot -192.798 -173.073
rtoes 5.88267
lfemur -61.6575 14.778 -17.9674
ltibia 106.107
lfoot -5.99355 -5.90007
ltoes -23.2499
115
root -2.02507 16.0891 -27.749 125.607 -8.14195 -184.693
lowerback 30.1702 8.26515 5.54806
upperback 23.4987 4.05863 -3.21442
thorax 11.0264 -0.560205 -7.87287
lowerneck 7.09636 0.631662 -14.1328
upperneck 8.08858 -1.27974 13.9129
head 1.32522 -1.14273 6.6213
rclavicle -2.34566e-014 -7.63333e-014
rhumerus -41.0956 25.9666 -90.1783
rradius 117.824
rwrist 15.0302
rhand -16.5703 6.75244
rfingers 7.12502
rthumb 9.64994 -23.0065
lclavicle -2.34566e-014 -7.63333e-014
lhumerus 5.84729 -38.31 82.889
lradius 109.402
lwrist 43.9306
lhand -8.31256 -8.0515
lfingers 7.12502
lthumb 17.6081 21.1712
rfemur 29.4309 1.511 22.8101
rtibia 45.6984
rfoot -192.448 -173.033
rtoes 5.44603
lfemur -59.5226 15.2664 -17.317
ltibia 107.903
lfoot -5.76135 -7.01591
ltoes -23.5143
116
root -2.01407 16.1393 -27.6972 126.723 -7.77091 -184.483
lowerback 29.1827 7.81299 5.39872
upperback 22.9632 3.78107 -3.32281
thorax 10.726 -0.562488 -7.79448
lowerneck 6.78624 0.643492 -13.9668
upperneck 8.16689 -1.17622 13.3685
head 1.38839 -1.07506 6.41448
rclavicle 2.127e-014 6.20208e-014
rhumerus -43.4861 25.7482 -91.4382
rradius 117.648
rwrist 13.4692
rhand -16.5963 6.84967
rfingers 7.12502
rthumb 9.62482 -22.9105
lclavicle 2.127e-014 6.20208e-014
lhumerus 5.04809 -38.1678 83.1811
lradius 109.488
lwrist 43.3738
lhand -8.0735 -8.33788
lfingers 7.12502
lthumb 17.8381 20.864
rfemur 28.2378 1.58936 23.2076
rtibia 45.3256
rfoot -192.046 -173.026
rtoes 5.2809
lfemur -57.203 15.796 -16.5733
ltibia 109.553
lfoot -5.36675 -7.86265
ltoes -24.4205
117
root -2.00382 16.191 -27.6457 127.867 -7.35221 -184.232
lowerback 28.1108 7.33916 5.32351
upperback 22.4208 3.49651 -3.39918
thorax 10.4734 -0.556021 -7.72275
lowerneck 6.52537 0.664873 -13.8095
upperneck 8.24762 -1.06937 12.8154
head 1.44434 -1.01013 6.20788
rclavicle 5.94366e-014 -7.95139e-015
rhumerus -45.7166 25.4191 -92.5965
rradius 117.376
rwrist 11.9642
rhand -16.5908 7.01755
rfingers 7.12502
rthumb 9.63016 -22.7423
lclavicle 5.94366e-014 -7.95139e-015
lhumerus 4.26584 -38.093 83.4379
lradius 109.588
lwrist 42.7104
lhand -7.97543 -8.70411
lfingers 7.12502
lthumb 17.9325 20.4891
rfemur 27.0393 1.66455 23.6445
rtibia 44.89
rfoot -191.606 -172.979
rtoes 5.20285
lfemur -54.708 16.3446 -15.6564
ltibia 111.018
lfoot -5.10723 -8.56627
ltoes -25.8715
118
root -1.99319 16.2508 -27.5942 129.001 -6.96926 -184.012
lowerback 27.0067 6.88183 5.23086
upperback 21.8866 3.22002 -3.47242
thorax 10.2594 -0.55098 -7.64546
lowerneck 6.35806 0.696234 -13.5816
upperneck 8.23729 -0.948868 12.2475
head 1.45701 -0.939517 5.9855
rclavicle -1.31198e-014 -4.77083e-015
rhumerus -47.8116 24.903 -93.6537
rradius 117.038
rwrist 10.7363
rhand -16.5312 7.23957
rfingers 7.12502
rthumb 9.68766 -22.5176
lclavicle -1.31198e-014 -4.77083e-015
lhumerus 3.51102 -38.0831 83.653
lradius 109.728
lwrist 42.1485
lhand -7.92505 -9.10557
lfingers 7.12502
lthumb 17.981 20.0832
rfemur 26.0023 1.76647 24.0303
rtibia 44.1468
rfoot -190.983 -172.904
rtoes 5.13811
lfemur -51.9534 16.8222 -14.7064
ltibia 112.17
lfoot -4.91529 -8.99979
ltoes -27.662
119
root -1.98248 16.3139 -27.5439 130.142 -6.54948 -183.779
lowerback 25.8684 6.41587 5.18049
upperback 21.346 2.93549 -3.52102
thorax 10.0707 -0.547286 -7.56766
lowerneck 6.18584 0.725965 -13.3864
upperneck 8.22391 -0.832169 11.6792
head 1.47087 -0.872059 5.76967
rclavicle 2.70347e-014 0
rhumerus -49.7878 24.2867 -94.5469
rradius 116.694
rwrist 9.87646
rhand -16.4019 7.48112
rfingers 7.12502
rthumb 9.81242 -22.2703
lclavicle 2.70347e-014 0
lhumerus 2.78171 -38.1112 83.8377
lradius 109.876
lwrist 41.6678
lhand -8.00771 -9.54168
lfingers 7.12502
lthumb 17.9014 19.6544
rfemur 24.9934 1.87263 24.418
rtibia 43.3327
rfoot -190.329 -172.765
rtoes 5.25908
lfemur -49.0115 17.2692 -13.6373
ltibia 113.043
lfoot -4.81112 -9.25602
ltoes -29.6857
120
root -1.9627 16.438 -27.4782 131.26 -6.14623 -183.54
lowerback 24.7148 5.96082 5.16046
upperback 20.8374 2.64802 -3.54502
thorax 9.94398 -0.549695 -7.48809
lowerneck 5.97491 0.736745 -13.2303
upperneck 8.17751 -0.736854 11.1736
head 1.48416 -0.813283 5.58112
rclavicle -3.65764e-014 8.90555e-014
rhumerus -51.565 23.5747 -95.2554
rradius 116.296
rwrist 9.45926
rhand -16.3098 7.72139
rfingers 7.12502
rthumb 9.9013 -22.0258
lclavicle -3.65764e-014 8.90555e-014
lhumerus 2.14184 -38.2049 83.9523
lradius 110.089
lwrist 41.3362
lhand -8.12186 -9.93356
lfingers 7.12502
lthumb 17.7916 19.2726
rfemur 24.1317 1.90939 24.7323
rtibia 42.328
rfoot -189.629 -172.536
rtoes 5.28932
lfemur -45.34 17.6531 -12.4817
ltibia 113.248
lfoot -5.06165 -9.2772
ltoes -31.466
121
root -1.95335 16.5 -27.4336 132.449 -5.71838 -183.282
lowerback 23.6511 5.46644 5.18411
upperback 19.8644 2.31484 -3.43389
thorax 10.0371 -0.52632 -7.55083
lowerneck 5.85844 0.771016 -13.1994
upperneck 8.09994 -0.631682 10.7157
head 1.47224 -0.756427 5.42953
rclavicle -9.83984e-015 2.8625e-014
rhumerus -53.3611 22.7895 -95.8448
rradius 115.903
rwrist 9.55505
rhand -16.2418 7.98447
rfingers 7.12502
rthumb 9.96685 -21.7596
lclavicle -9.83984e-015 2.8625e-014
lhumerus 1.33313 -38.3327 84.1852
lradius 110.307
lwrist 41.0719
lhand -8.32639 -10.4334
lfingers 7.12502
lthumb 17.5948 18.7904
rfemur 23.0457 1.9111 25.0126
rtibia 41.5655
rfoot -188.993 -172.23
rtoes 5.41058
lfemur -42.2357 17.8831 -11.3697
ltibia 113.552
lfoot -5.20752 -8.94936
ltoes -32.6726
122
root -1.9449 16.5541 -27.3886 133.788 -5.27659 -182.988
lowerback 22.3575 4.95609 5.27944
upperback 19.2658 2.01059 -3.46946
thorax 9.85297 -0.51089 -7.52359
lowerneck 5.65399 0.796508 -13.1994
upperneck 8.05185 -0.53573 10.355
head 1.48367 -0.70189 5.31426
rclavicle 7.85199e-015 4.29375e-014
rhumerus -55.0344 21.9514 -96.3749
rradius 115.477
rwrist 10.0293
rhand -16.3274 8.16045
rfingers 7.12502
rthumb 9.8843 -21.5875
lclavicle 7.85199e-015 4.29375e-014
lhumerus 0.562182 -38.4936 84.3567
lradius 110.575
lwrist 40.9847
lhand -8.49184 -10.8466
lfingers 7.12502
lthumb 17.4355 18.3915
rfemur 21.7091 1.87059 25.2865
rtibia 40.9488
rfoot -188.442 -171.88
rtoes 5.53726
lfemur -39.2574 17.9521 -10.3002
ltibia 113.634
lfoot -5.13549 -8.52819
ltoes -33.8414
123
root -1.93706 16.5977 -27.344 135.208 -4.81057 -182.689
lowerback 21.0215 4.44346 5.38603
upperback 18.6167 1.70957 -3.46654
thorax 9.64417 -0.493326 -7.46369
lowerneck 5.53861 0.837511 -13.3025
upperneck 7.93337 -0.431075 10.0092
head 1.45954 -0.646916 5.22091
rclavicle 2.92213e-014 -4.29375e-014
rhumerus -56.5596 21.2437 -96.7498
rradius 115.017
rwrist 10.8329
rhand -16.5148 8.15949
rfingers 7.12502
rthumb 9.70345 -21.597
lclavicle 2.92213e-014 -4.29375e-014
lhumerus -0.284639 -38.6572 84.5964
lradius 110.883
lwrist 40.9918
lhand -8.66709 -11.2511
lfingers 7.12502
lthumb 17.2669 18.0018
rfemur 20.0829 1.84365 25.5666
rtibia 40.7436
rfoot -188.047 -171.5
rtoes 5.75297
lfemur -36.2994 17.8533 -9.28612
ltibia 113.52
lfoot -4.85234 -8.07742
ltoes -33.2554
124
root -1.9307 16.6298 -27.3011 136.621 -4.34476 -182.395
lowerback 19.6656 3.94865 5.49888
upperback 17.9794 1.4067 -3.43907
thorax 9.48052 -0.485289 -7.39084
lowerneck 5.42903 0.886342 -13.4517
upperneck 7.76983 -0.319134 9.74258
head 1.41987 -0.58716 5.15992
rclavicle -7.8023e-015 -3.02153e-014
rhumerus -57.8226 20.581 -97.0146
rradius 114.571
rwrist 11.8605
rhand -16.7488 7.95925
rfingers 7.12502
rthumb 9.47771 -21.8076
lclavicle -7.8023e-015 -3.02153e-014
lhumerus -1.13184 -38.7973 84.8414
lradius 111.237
lwrist 41.0759
lhand -8.82484 -11.6129
lfingers 7.12502
lthumb 17.115 17.6533
rfemur 18.3747 1.80071 25.826
rtibia 40.6925
rfoot -187.723 -171.1
rtoes 5.98692
lfemur -33.3216 17.5885 -8.38524
ltibia 113.19
lfoot -4.42169 -7.52626
ltoes -31.9224
125
root -1.92315 16.6596 -27.2583 137.939 -3.92113 -182.138
lowerback 18.384 3.47126 5.52738
upperback 17.3597 1.08393 -3.38267
thorax 9.30714 -0.512931 -7.24764
lowerneck 5.39762 0.951226 -13.5807
upperneck 7.53133 -0.190123 9.44537
head 1.34392 -0.518739 5.08549
rclavicle 1.14798e-014 -1.03368e-014
rhumerus -58.9252 19.9753 -97.1738
rradius 114.169
rwrist 13.0158
rhand -16.9502 7.56918
rfingers 7.12502
rthumb 9.28335 -22.2064
lclavicle 1.14798e-014 -1.03368e-014
lhumerus -2.03755 -38.9015 85.1673
lradius 111.608
lwrist 41.1382
lhand -8.96023 -11.9385
lfingers 7.12502
lthumb 16.9847 17.3389
rfemur 16.7426 1.77088 26.05
rtibia 40.7391
rfoot -187.476 -170.707
rtoes 6.18043
lfemur -30.2072 17.0566 -7.67439
ltibia 112.579
lfoot -3.88865 -6.88097
ltoes -31.0723
126
root -1.91447 16.6862 -27.2159 139.229 -3.4991 -181.835
lowerback 17.0817 2.98868 5.54506
upperback 16.7605 0.727501 -3.27649
thorax 9.18037 -0.568474 -7.0517
lowerneck 5.34018 1.02499 -13.6823
upperneck 7.28567 -0.0437589 9.11694
head 1.26843 -0.439792 4.99657
rclavicle -5.96354e-015 -2.54444e-014
rhumerus -59.9201 19.4681 -97.2118
rradius 113.811
rwrist 14.1968
rhand -17.1801 7.14329
rfingers 7.12502
rthumb 9.06159 -22.6421
lclavicle -5.96354e-015 -2.54444e-014
lhumerus -2.94403 -38.9481 85.5516
lradius 111.98
lwrist 41.1561
lhand -9.09842 -12.2102
lfingers 7.12502
lthumb 16.8517 17.0786
rfemur 15.0968 1.74346 26.3478
rtibia 40.8656
rfoot -187.272 -170.385
rtoes 6.27161
lfemur -27.1219 16.3485 -7.09754
ltibia 111.732
lfoot -3.24749 -6.09238
ltoes -30.0816
